/* XPM */
static char *_0dcbee449e149108e454113e3da33b7XGd19rrF0C3HFicA[] = {
/* columns rows colors chars-per-pixel */
"32 32 145 2 ",
"   c #100E24",
".  c #0F1524",
"X  c #131225",
"o  c #141428",
"O  c #18192B",
"+  c #340E3D",
"@  c #2F1439",
"#  c #30143A",
"$  c #2A2937",
"%  c #370C44",
"&  c #380C45",
"*  c #370E48",
"=  c #3B0E49",
"-  c #341040",
";  c #381B47",
":  c #3C134C",
">  c #3A1949",
",  c #3E1651",
"<  c #3E2052",
"1  c #421654",
"2  c #4C1557",
"3  c #431957",
"4  c #441E5C",
"5  c #4B1C5E",
"6  c #402254",
"7  c #44235C",
"8  c #48205E",
"9  c #49285F",
"0  c #4E1C64",
"q  c #5A1C66",
"w  c #4A2462",
"e  c #472861",
"r  c #4E296A",
"t  c #572666",
"y  c #53216A",
"u  c #59266B",
"i  c #522C6F",
"p  c #4E2D71",
"a  c #532E74",
"s  c #5C2974",
"d  c #552F78",
"f  c #533175",
"g  c #573278",
"h  c #59367A",
"j  c #632275",
"k  c #6C2279",
"l  c #602D7C",
"z  c #6D387C",
"x  c #70377B",
"c  c #672680",
"v  c #632F81",
"b  c #7A2B84",
"n  c #702B88",
"m  c #643484",
"M  c #663689",
"N  c #69368A",
"B  c #6C388D",
"V  c #73348C",
"C  c #772F92",
"Z  c #6E3992",
"A  c #7A3494",
"S  c #733A93",
"D  c #7D3891",
"F  c #7C3D9C",
"G  c #7F3EA2",
"H  c #754790",
"J  c #7C4994",
"K  c #7C419B",
"L  c #8F3499",
"P  c #803D9C",
"I  c #883E9D",
"U  c #93379C",
"Y  c #833EA3",
"T  c #913FA4",
"R  c #903DAF",
"E  c #A53DAC",
"W  c #85498F",
"Q  c #8D5199",
"!  c #92529C",
"~  c #866C9C",
"^  c #884CA4",
"/  c #8740AA",
"(  c #8B40AC",
")  c #9140A7",
"_  c #9340A8",
"`  c #9D43AF",
"'  c #8B57A2",
"]  c #955CA9",
"[  c #8E41B1",
"{  c #9441B5",
"}  c #9742B9",
"|  c #9C44BE",
" . c #A441AE",
".. c #A642B4",
"X. c #AA43B5",
"o. c #A244BF",
"O. c #AE45BB",
"+. c #B346BC",
"@. c #BA47BE",
"#. c #9C62AF",
"$. c #A76ABA",
"%. c #AB6CBB",
"&. c #9D45C3",
"*. c #A145C3",
"=. c #AC47C1",
"-. c #A248C2",
";. c #B546C1",
":. c #BB46C1",
">. c #B648C1",
",. c #BB4AC2",
"<. c #BE51C4",
"1. c #BF59C6",
"2. c #BE79CC",
"3. c #C05AC8",
"4. c #C360CD",
"5. c #CB61CF",
"6. c #C46DCE",
"7. c #C968CF",
"8. c #C26DD5",
"9. c #CD71D4",
"0. c #CF7EDD",
"q. c #D27CDB",
"w. c #A18DA8",
"e. c #A591B6",
"r. c #BDA2CB",
"t. c #CF85DA",
"y. c #D187D6",
"u. c #D485DD",
"i. c #D492DA",
"p. c #DA9EDE",
"a. c #D687E2",
"s. c #DA87E2",
"d. c #D788E1",
"f. c #DA8CE4",
"g. c #E390E8",
"h. c #D7B5E5",
"j. c #E5ADEA",
"k. c #D7C7E1",
"l. c #E2D3E8",
"z. c #F0D6F3",
"x. c #E8E0ED",
"c. c #E8E9EE",
"v. c #FCFAFB",
"b. c #FDFAFD",
"n. c #FEFFFE",
/* pixels */
"# # # # # # # # # # # # # # # # # # # # # # # # @ # # # # # # # ",
"# @ # # # # # # @ # @ # # # # # # # # # # # # # # # # # # # # # ",
"# # # # # # # # # # # # # # # # # # # # # # # # # # # # # @ # # ",
"# # # # # @ # # # # 1 > # % > ; # 5 # % # # # # # # # # # # # # ",
"# # # # # # # # & * S a % % a f # -.% & % % @ % # # # # # # @ # ",
"# # # # # # # # x z M e % 1 9 e # A % % 1 1 # % # # # # # # # # ",
"# # # # # # # j 9.6.7 # % 7 # # % - 0 j g g j 3 % % # # # # # # ",
"# # @ # # % y -.b b # % # - % % y 4 _ F ] ] =.e.c y - % @ # @ # ",
"# # # # # % r./ % % % % # % & % m F T I ] ] ) p.8.( 8 4 # @ # # ",
"# # # # + & i.[ % % % w % & w 7 T h.` D 3 3 0 k ' O.Y G + @ # # ",
"# # # + % % :.&.% % % f % % f a :.n.;.f % % % & f +.&.&.% # # # ",
"# # # + % % q.N U L & , % % N M :.j.V , % & % % , q N N w # # # ",
"# # % % % % ^ 2.P F r % r v X...q.^ { r % % & % & # : , B # # # ",
"# # # > i % g <.x.l.X.m f O.o.o.f.O.-.X.m m R r & % % % } # # # ",
"# # # # # % = S 1.3.s.+.t.-.u.d.,.s.;.f.+.+.a.+.{ % % % 1 # # # ",
"# # % % % % % * = = = g -.S ,.+.b.:.-.h S S :.b.:.a # @ Z # # # ",
"# # % % % % % & % % & a | Z :.;.v.:.*.g S Z ;.b.,.a # @ S # # # ",
"# # # + % g % % = & % % % g *.| s.+.N i % % i s.y.K & % % # # # ",
"# # # + % B 2 % r r % % % r *.o.<.F % % : : % E m u.= % # # # # ",
"# # # # % r  .0 , : & % : 1 >.+.0.} % % r r % % } 6.= & # # # # ",
"# # # # # % r ( J H , q ~ Y @.:.{ l % % % % % % G k.: % # # # # ",
"# # # # # % % w %.$.S y.z.` 4.5.M % % # % % % j -.s % % # # # @ ",
"# # # # # @ % % p d :.n.f.Z f.g.f % @ % % % # ,.-.+ # @ # # # # ",
"# @ # # # # # % 7 5 b w.#.m Q ! 4 # 6 % # # 6 7.n # # # # # # @ ",
"# @ # # # # # % & % # % 4 4 % % + 7 4 & 7 7 M W % # @ # # # # # ",
"# # # # @ @ # # # # @ # % # V C # < % # < < 0 # # # # # # # # @ ",
"# # # # # # # # # @ # # # # t u # # # # # # # # @ # # # # # # # ",
"# # # # # # # # # # # # # # # # # # # # # # # # @ # # # # # # # ",
"# # # # # # # # # # # # # # # # # # # # @ # # # # # # # # # # # ",
"X X X X X X X X o X X X X X X o X X X X X X X o X X X X X X o o ",
"X $ o   c.. X X X X X X X X X X X X X X X X X X X X X X o X . X ",
"X X X X O X X X X X X X X X X X X X X X X X X X X X X X X X X X "
};
