/* XPM */
static char *_f3ab1a4bd814c34a745870ff09024dd8lw6VCZkIdQjDZzV[] = {
/* columns rows colors chars-per-pixel */
"32 32 20 1 ",
"  c #410441",
". c #41185A",
"X c #523473",
"o c #8B1852",
"O c #8B2C62",
"+ c #BD346A",
"@ c #73699C",
"# c #BD558B",
"$ c #9C75A4",
"% c #E6719C",
"& c #22BBD2",
"* c #20D6C7",
"= c #63E9D1",
"- c #9499BD",
"; c #E695AC",
": c #DEBECD",
"> c #A6FCDB",
", c #DEDAE6",
"< c #EEFAF6",
"1 c white",
/* pixels */
"************=>**&&**&&==>*******",
"***********=***********&&>=*****",
"**********=****************=>***",
"=>==>>=====*****  %<%%@******1>=",
"***&&&&&&=**** ,::<:%%;% ****==&",
"*********&=**:::<<;<:;:%%%**=&&*",
"**********=* O%::::<;<::%%;=****",
"**********>1:+O:+<<;<::::%##****",
"*********>==; :;#;%<<<:::;%:****",
"*******===*** o%+O<:<:%<<;%# ***",
"******=******; o-+;::%,<,,%##***",
"===>>=>*******;-;-.+:%<<%<;;+==>",
"&&&&=>*****OOo;<<<X- ::#<,,,;**&",
"****&&>***%*:;<<<<;-+X+:;+:%;***",
"******=***oO::<:,<<--- ;+,;;;***",
"*******:%***<<,<<<.,---o ,%%****",
"******O=O=<X,<+:<,:<,+  + : ****",
"****O====<::,<<@,,,-O* :  O*****",
"*=>>=**,<o,<,,:X,<<:oO**********",
"=**O**<,<-<<:@@+-<<,X********=>=",
"**%*,o<,@<<<::<<<.@;*******==&&&",
"*****<:,@;::.$,,,.-o*,***=>*****",
"*****<<<<- <,<.,-X-o>===>>******",
"***O*<<<,.<<,,<<,,@O%&&&&=>*****",
"****<X..;.<<.@<,--.******&&==***",
"****.<<;-<+.<<--<.*+*******&&=>*",
">====<,#,o<-<<--X**O**********=>",
"&***:@.&o<:. ,X$**************>>",
"***$***,.@<,-@-**************==&",
"**,****<<$<$=.**************==**",
"*********:***->***********==****",
"********,**%*=>>====>====>******"
};
