/* XPM */
static char *c509338399804b49df962be43a72d6192WnxE7T2CbDSm7vV[] = {
/* columns rows colors chars-per-pixel */
"32 32 11 1 ",
"  c #04193F",
". c #03396B",
"X c #C3242F",
"o c #E7333B",
"O c #0696DB",
"+ c #22BBD2",
"@ c #20D6C7",
"# c #0FEFFB",
"$ c #63E9D1",
"% c #A6FCDB",
"& c #FCFEFE",
/* pixels */
"@@@@@@@@@@@@$%@@++@@++$$%@@@@@@@",
"@@@@@@@@@@@$@@@@@@@@@@@++%$@@@@@",
"@@@@@@@@@@$@@@@@@@@@@@@@@@@$%@@@",
"$%$$%%$$$$$@@@@@@@@@@@@@@@@@@&%$",
"@@@++++++$@@@@@@@@@@@@@@@@@@@$$+",
"@@@@@@@@@+$@@@@@@@@@@@@@@@@@$++@",
"@@@@@@@@@@$@@     @@@@@@@@@$@@@@",
"@@@@@@@@@@%  ###OO  @@@@@$$@@@@@",
"@@@@@@@@@% ######O.. $$%%%@@@@@@",
"@@@@@@@$$ #######  .. +++$%@@@@@",
"@@@@@@$@ ########  ... @@@$%@@@@",
"$$$%%$%@ ###   ##OO..  @@@@$$$$%",
"++++$%@ ###  && #OOO  & @%$$@@@+",
"@@@@++% ###  && #OOO  & $@@@@@@@",
"@@@@@@$ ###     #OOO    @@@@@@@@",
"@@@@@@@ ####   #OOOO.   @@@@@@@@",
"@@@@@@@ ########OOOO... @@@@@@@@",
"@@@@@$$$ ######OOOO... @@@@@@@@@",
"@$%%$@@+ ####OOOO  ... @@@@@@@@@",
"$@@@@@@@@ OOOOOOOOO.. @@@@@@@$%$",
"@@@@@@@@@ XXOOOOOO... @@@@@$$+++",
"@@@@@@@@@ ooXXX.....X @@@$%@@@@@",
"@@@@@@@@ . ooooXXXXXo $$%%@@@@@@",
"@@@@@@@@ O.  oooooooo +++$%@@@@@",
"@@@@@@@ OOOO. oooooo . @@++$$@@@",
"@@@@@@@ OOOO..  oooo.. @@@@++$%@",
"%$$$$%% OOO.OO..  o .. @@@@@@@$%",
"+@@@++++ ..OOOOO.. .  @@@@@@@@%%",
"@@@@@@@@@ OOOOO..... @@@@@@@@$$+",
"@@@@@@@@@ OOOO  .... @@@@@@@$$@@",
"@@@@@@@@@ OOOO  ... @@@@@@$$@@@@",
"@@@@@@@@@ OOO % ... %$$$$%@@@@@@"
};
