/* XPM */
static char *_7ad0e1dac8d4750903a5f59c13716a8kSlaPHbwvs77QNE4[] = {
/* columns rows colors chars-per-pixel */
"32 32 23 1 ",
"  c #261F1C",
". c #2D2724",
"X c #322B28",
"o c #64342F",
"O c #633A35",
"+ c #71413B",
"@ c #237168",
"# c #2A786F",
"$ c #A3673F",
"% c #AD683A",
"& c #BB7547",
"* c #488073",
"= c #BF8F57",
"- c #CD9756",
"; c #DBA463",
": c #22BBD2",
"> c #20D6C7",
", c #63E9D1",
"< c #D5B789",
"1 c #E6C48F",
"2 c #F4D29C",
"3 c #A6FCDB",
"4 c white",
/* pixels */
">>>>>>>>>>>>,3>>::>>::,,3>>>>>>>",
">>>>>>>>>>>,>>>XX>>>>>>::3,>>>>>",
">>>>>>>>>>,>>>X22X>>>>>>>>>,3>>>",
",3,,33,,,,,>>.=;22X>>>>>>>>>>43,",
">>>::::::,>>X<=<;;2X>>>>>>>>>,,:",
">>>>>>>>>:,X=<=<=;;;X>>>>>>>,::>",
">>>>>>>>>> -2==<=$;&;X>>>>>,>>>>",
">>>>>>>>>X-1%;;<2;;;&;X>>,,>>>>>",
">>>>>>>>> %%--12<;&;&;X333>>>>>>",
">>>>>>>,,X;%=-111=$;;XX::,3>>>>>",
">>>>>>,>>XX .$<<<==$.XX>>>,3>>>>",
",,,33,3>>X++...&..XXXXX>>>>,,,,3",
"::::,3>>>X++o O$&XX&&XX>>3,,>>>:",
">>>>::3>>X+&&X&$$XX&&XX,,>>>>>>>",
">>>>>>,>>XX&&+;OO$X&&XX:>>>>>>>>",
">>>>>>>,>XX+;+;.O$.&&&X>>>>>>>>>",
">>>>>>>,3 &X;+;+O$&&+&X>>>>>>>>>",
">>>>>,,,,X&X;+;X+&=&+&X>>>>>>>>>",
">,33,>>::X&o;;;X+&;$+&X>>>>>>>>>",
",>>>>>>>>X&  &% X&&;O+X>>>>>>,3,",
">>>>>>>>>X&Xo%;o +&;OOX>>>>,,:::",
">>>>>>>>>X+X+%-%.O%;+O.>>,3>>>>>",
">>>>>>>>>X+X++--.O$=.O.,33>>>>>>",
">>>>>>>>>X+X++%- O$;X+X::,3>>>>>",
">>>>>>>>> +oX+&-  $OX+X>>::,,>>>",
">>>>>>>>>Xoo +&&  oO.+X>>>>::,3>",
"3,,,,333,Xoo +&&+ +...X>>>>>>>,3",
":>>>:::::XXo o&++X+.+XX>>>>>>>33",
">>>>>>>>>:XXXoooXX+XO.>>>>>>>,,:",
">>>>>>>>>>XXXX+   XXX.>>>>>>,,>>",
">>>>>>>>>>>X#*X @  #X>>>>>,,>>>>",
">>>>>>>>>>>>>,33,,,,3,,,,3>>>>>>"
};
